<svg width="165" height="49" viewBox="0 0 165 49" fill="none" xmlns="http://www.w3.org/2000/svg"><script xmlns=""/>
<path d="M77.1961 38.5716V43.8674H56.4624V10.1957H62.4266V38.5716H77.1961Z" fill="#160035"/>
<path d="M89.6914 17.8237C91.5855 17.8237 93.1792 18.0653 94.4726 18.5517C95.766 19.0381 96.7988 19.7178 97.5742 20.5939C98.3466 21.47 98.8982 22.5303 99.2323 23.778C99.5633 25.0256 99.7288 26.3941 99.7288 27.8835V43.2874C98.8461 43.4807 97.5129 43.7163 95.7292 43.9912C93.9454 44.2661 91.9349 44.4051 89.6945 44.4051C88.2111 44.4051 86.8534 44.2601 85.6244 43.9671C84.3923 43.674 83.3441 43.2058 82.4768 42.5593C81.6094 41.9128 80.929 41.07 80.4417 40.0338C79.9513 38.9976 79.7092 37.7167 79.7092 36.1941C79.7092 34.6716 79.9851 33.5055 80.5367 32.5025C81.0884 31.4996 81.8393 30.6809 82.7863 30.0495C83.7334 29.4181 84.8306 28.965 86.0749 28.6901C87.3223 28.4152 88.6218 28.2762 89.9795 28.2762C90.6109 28.2762 91.2729 28.3185 91.9686 28.397C92.6613 28.4786 93.403 28.6145 94.1937 28.8109V27.8382C94.1937 27.1584 94.114 26.5089 93.9577 25.8957C93.7983 25.2794 93.5225 24.7387 93.1302 24.2674C92.7348 23.7991 92.2138 23.4336 91.5671 23.1738C90.9204 22.914 90.1083 22.7841 89.1306 22.7841C87.8066 22.7841 86.5898 22.8808 85.4865 23.0741C84.3801 23.2674 83.4821 23.497 82.7894 23.7538L82.0784 18.9928C82.8047 18.733 83.8621 18.4762 85.2505 18.2164C86.6388 17.9566 88.1222 17.8267 89.7006 17.8267L89.6914 17.8237ZM90.1634 39.7377C91.9318 39.7377 93.2712 39.6411 94.1876 39.4447V32.9345C93.8719 32.8378 93.4152 32.7412 92.8145 32.6445C92.2138 32.5478 91.5518 32.4995 90.8254 32.4995C90.1941 32.4995 89.5535 32.5478 88.9099 32.6445C88.2632 32.7412 87.6778 32.9194 87.1599 33.1792C86.6388 33.439 86.222 33.8046 85.9064 34.2728C85.5907 34.7441 85.4344 35.3332 85.4344 36.0461C85.4344 37.4388 85.8604 38.4025 86.7124 38.9372C87.5644 39.4719 88.7168 39.7377 90.1665 39.7377H90.1634Z" fill="#160035"/>
<path d="M106.447 11.7516L112.175 10.7788V18.4551H120.98V23.3641H112.175V33.714C112.175 35.7561 112.491 37.2122 113.122 38.0883C113.754 38.9644 114.826 39.3994 116.34 39.3994C117.382 39.3994 118.305 39.2876 119.108 39.058C119.914 38.8315 120.551 38.62 121.023 38.4267L121.97 43.091C121.308 43.381 120.438 43.6831 119.368 43.9913C118.296 44.2994 117.033 44.4535 115.58 44.4535C113.812 44.4535 112.338 44.2118 111.155 43.7254C109.971 43.239 109.031 42.5352 108.338 41.6107C107.642 40.6863 107.155 39.5686 106.87 38.2575C106.585 36.9464 106.444 35.448 106.444 33.7623V11.7516H106.447Z" fill="#160035"/>
<path d="M126.234 11.7516L131.962 10.7788V18.4551H140.767V23.3641H131.962V33.714C131.962 35.7561 132.277 37.2122 132.909 38.0883C133.54 38.9644 134.613 39.3994 136.127 39.3994C137.169 39.3994 138.091 39.2876 138.894 39.058C139.7 38.8315 140.338 38.62 140.81 38.4267L141.757 43.091C141.095 43.381 140.225 43.6831 139.155 43.9913C138.082 44.2994 136.82 44.4535 135.367 44.4535C133.598 44.4535 132.124 44.2118 130.941 43.7254C129.758 43.239 128.817 42.5352 128.125 41.6107C127.429 40.6863 126.942 39.5686 126.656 38.2575C126.371 36.9464 126.23 35.448 126.23 33.7623V11.7516H126.234Z" fill="#160035"/>
<path d="M154.538 17.8237C156.432 17.8237 158.025 18.0653 159.319 18.5517C160.612 19.0381 161.645 19.7178 162.42 20.5939C163.193 21.47 163.744 22.5303 164.078 23.778C164.409 25.0256 164.575 26.3941 164.575 27.8835V43.2874C163.692 43.4807 162.359 43.7163 160.575 43.9912C158.792 44.2661 156.781 44.4051 154.541 44.4051C153.057 44.4051 151.7 44.2601 150.471 43.9671C149.239 43.674 148.19 43.2058 147.323 42.5593C146.456 41.9128 145.775 41.07 145.288 40.0338C144.798 38.9976 144.555 37.7167 144.555 36.1941C144.555 34.6716 144.831 33.5055 145.383 32.5025C145.935 31.4996 146.685 30.6809 147.633 30.0495C148.58 29.4181 149.677 28.965 150.921 28.6901C152.169 28.4152 153.468 28.2762 154.826 28.2762C155.457 28.2762 156.119 28.3185 156.815 28.397C157.507 28.4786 158.249 28.6145 159.04 28.8109V27.8382C159.04 27.1584 158.96 26.5089 158.804 25.8957C158.645 25.2794 158.369 24.7387 157.976 24.2674C157.581 23.7991 157.06 23.4336 156.413 23.1738C155.767 22.914 154.954 22.7841 153.977 22.7841C152.653 22.7841 151.436 22.8808 150.333 23.0741C149.226 23.2674 148.328 23.497 147.636 23.7538L146.925 18.9928C147.651 18.733 148.708 18.4762 150.097 18.2164C151.485 17.9566 152.968 17.8267 154.547 17.8267L154.538 17.8237ZM155.01 39.7377C156.778 39.7377 158.117 39.6411 159.034 39.4447V32.9345C158.718 32.8378 158.261 32.7412 157.661 32.6445C157.06 32.5478 156.398 32.4995 155.672 32.4995C155.04 32.4995 154.4 32.5478 153.756 32.6445C153.109 32.7412 152.524 32.9194 152.006 33.1792C151.485 33.439 151.068 33.8046 150.753 34.2728C150.437 34.7441 150.281 35.3332 150.281 36.0461C150.281 37.4388 150.707 38.4025 151.559 38.9372C152.411 39.4719 153.563 39.7377 155.013 39.7377H155.01Z" fill="#160035"/>
<path d="M40.2463 36.3935C38.4902 34.5779 36.2804 33.1369 33.8776 32.3636C31.91 31.7322 29.973 31.7715 27.941 31.7715C26.6323 31.7715 25.3236 31.7715 24.0149 31.7715V24.6903C24.0149 21.4035 24.113 18.1016 24.0364 14.8178C23.9475 10.948 22.1637 7.25031 19.5096 4.54655C16.6348 1.61319 12.819 0 8.76729 0H7.2318V4.57374C5.6105 3.98163 3.88192 3.67349 2.11044 3.67349H0.574951V18.449C0.574951 20.7661 0.740453 22.908 1.617 25.0679C2.41386 27.0376 3.60915 28.826 5.08028 30.3274C5.75148 31.0102 6.47172 31.6204 7.23486 32.1581V35.0975C7.23486 42.7647 13.3094 49 20.7784 49H44.6812V47.4231C44.6812 43.2632 43.1089 39.345 40.2525 36.3935H40.2463ZM7.22874 15.5459V28.0557C5.03737 25.8111 3.66738 22.7207 3.64593 19.313V19.1559V6.92707C4.91171 7.09322 6.1162 7.45875 7.2318 7.99346V15.5459H7.22874ZM10.3028 15.6516V10.1021C12.724 12.3708 14.2564 15.6244 14.2809 19.2314L14.2901 27.0134C14.2901 27.8774 14.9705 28.5783 15.8103 28.5843C16.6593 28.5904 17.3519 27.8835 17.3519 27.0104V17.6424C16.9841 14.0777 15.3598 10.7788 12.8497 8.22004C12.0651 7.41948 11.21 6.71862 10.2997 6.12047V3.25358C16.2455 4.02996 20.8918 9.25321 20.9378 15.558V15.7181V31.7684H15.8164C13.8335 31.7684 11.9578 31.2247 10.2997 30.3516V15.6516H10.3028ZM20.7754 45.8461C14.992 45.8461 10.3028 41.0337 10.3028 35.0975V33.8227C12.0375 34.5145 13.9009 34.9253 15.8195 34.9253H21.1677C22.0932 39.1486 25.7741 42.3116 30.1661 42.3116H34.4293C35.2782 42.3116 35.9647 41.6047 35.9647 40.7346C35.9647 39.8646 35.2782 39.1577 34.4293 39.1577H30.1661C27.4843 39.1577 25.201 37.3874 24.3612 34.9253H29.5224C35.6644 34.9737 40.752 39.7408 41.5091 45.8461H20.7784H20.7754Z" fill="url(#paint0_linear_75_283)"/>
<path d="M3.75635 3.76111V6.94218C4.97922 7.11438 6.14693 7.47387 7.22882 7.99348V4.57375C6.11321 4.16592 4.94857 3.89403 3.75635 3.76111Z" fill="url(#paint1_linear_75_283)"/>
<path d="M13.147 42.4355C11.3847 40.5111 10.3028 37.9221 10.3028 35.0794V33.8046C9.22398 33.3756 8.19419 32.8167 7.22876 32.14V35.0794C7.22876 39.8435 9.57643 44.0577 13.147 46.5621V42.4355Z" fill="url(#paint2_linear_75_283)"/>
<path d="M24.018 23.2735H20.9409V31.7715H24.018V23.2735Z" fill="url(#paint3_linear_75_283)"/>
<defs>
<linearGradient id="paint0_linear_75_283" x1="0.109094" y1="4.84562" x2="33.8502" y2="50.0997" gradientUnits="userSpaceOnUse">
<stop stop-color="#FDE00D"/>
<stop offset="0.32" stop-color="#FA17AD"/>
<stop offset="0.65" stop-color="#7D44FB"/>
<stop offset="1" stop-color="#272FF9"/>
</linearGradient>
<linearGradient id="paint1_linear_75_283" x1="4.35093" y1="5.71567" x2="11.1878" y2="6.69456" gradientUnits="userSpaceOnUse">
<stop stop-color="#160035" stop-opacity="0"/>
<stop offset="1" stop-color="#160035"/>
</linearGradient>
<linearGradient id="paint2_linear_75_283" x1="10.1557" y1="39.774" x2="10.9509" y2="29.069" gradientUnits="userSpaceOnUse">
<stop stop-color="#160035" stop-opacity="0"/>
<stop offset="1" stop-color="#160035"/>
</linearGradient>
<linearGradient id="paint3_linear_75_283" x1="22.5561" y1="24.7145" x2="22.2494" y2="36.6294" gradientUnits="userSpaceOnUse">
<stop stop-color="#160035" stop-opacity="0"/>
<stop offset="1" stop-color="#160035"/>
</linearGradient>
</defs>
</svg>